PathFileType	4	(X/Y/Z)	C:\Users\Basilio\Documents\Thesis Gigler\squatting_fais\c3dfiles\054\SLS_front_pre3\markers_experimental.trc
DataRate	CameraRate	NumFrames	NumMarkers	Units	OrigDataRate	OrigDataStartFrame	OrigNumFrames
200.000000	200.000000	4	61	mm	200.000000	889	1423
Frame#	Time	FHD			LBHD			RBHD			C7			T10			CLAV			LSHO			LUUPA			LMUPA			LDUPA			LLEP			LMEP			LRAD			LUL			LRFIN			RSHO			RUPA1			RMUPA			RDUPA			RLEP			RMEP			RRAD			RUL			RUFIN			LASI			RASI			USACR			LSACR			RSACR			LTHI1			LTHI2			LTHI3			LTHI4			LLFC			LMFC			LTIB1			LTIB2			LTIB3			LTIB4			LLMAL			LMMAL			LHEE			LMT1			LMT2			LMT5			RTHI			RTHI2			RTHI3			RTHI4			RLFC			RMFC			RTIB1			RTIB2			RTIB3			RTIB4			RLMAL			RMMAL			RHEE			RMT1			RMT2			RMT5			
		X1	Y1	Z1	X2	Y2	Z2	X3	Y3	Z3	X4	Y4	Z4	X5	Y5	Z5	X6	Y6	Z6	X7	Y7	Z7	X8	Y8	Z8	X9	Y9	Z9	X10	Y10	Z10	X11	Y11	Z11	X12	Y12	Z12	X13	Y13	Z13	X14	Y14	Z14	X15	Y15	Z15	X16	Y16	Z16	X17	Y17	Z17	X18	Y18	Z18	X19	Y19	Z19	X20	Y20	Z20	X21	Y21	Z21	X22	Y22	Z22	X23	Y23	Z23	X24	Y24	Z24	X25	Y25	Z25	X26	Y26	Z26	X27	Y27	Z27	X28	Y28	Z28	X29	Y29	Z29	X30	Y30	Z30	X31	Y31	Z31	X32	Y32	Z32	X33	Y33	Z33	X34	Y34	Z34	X35	Y35	Z35	X36	Y36	Z36	X37	Y37	Z37	X38	Y38	Z38	X39	Y39	Z39	X40	Y40	Z40	X41	Y41	Z41	X42	Y42	Z42	X43	Y43	Z43	X44	Y44	Z44	X45	Y45	Z45	X46	Y46	Z46	X47	Y47	Z47	X48	Y48	Z48	X49	Y49	Z49	X50	Y50	Z50	X51	Y51	Z51	X52	Y52	Z52	X53	Y53	Z53	X54	Y54	Z54	X55	Y55	Z55	X56	Y56	Z56	X57	Y57	Z57	X58	Y58	Z58	X59	Y59	Z59	X60	Y60	Z60	X61	Y61	Z61	

890	4.445	-203.0349273681641	1566.3388671875	-1087.050170898438	-365.0617065429688	1510.951171875	-1154.449951171875	-379.3425292968751	1509.318359375	-1014.58642578125	-415.5031127929689	1358.134521484375	-1068.864624023438	-521.7678833007814	1047.029174804688	-1058.643188476563	-284.2340393066407	1277.657470703125	-1086.369995117188	-347.8132934570313	1357.08447265625	-1222.953125	-211.8717041015626	1261.89208984375	-1367.792602539063	-177.4416961669922	1295.569946289063	-1351.6279296875	-142.6626739501953	1258.595825195313	-1383.509765625	-84.47852325439455	1265.2724609375	-1384.952270507813	-76.80567169189455	1193.922607421875	-1350.0615234375	174.3110046386719	1288.562133789063	-1314.320190429688	188.9139251708985	1272.085327148438	-1388.9248046875	262.7956237792969	1319.864990234375	-1332.314331054688	-320.8903198242188	1350.949829101563	-939.536560058594	-161.128662109375	1257.732543945313	-813.3467407226565	-129.8563232421875	1291.593017578125	-826.2170410156252	-91.8966751098633	1249.373779296875	-802.757995605469	-46.6853370666504	1249.349853515625	-805.7203369140627	-44.15374374389649	1190.731567382813	-853.4508056640627	203.3842468261719	1334.322631835938	-919.187438964844	215.5894927978516	1300.577270507813	-847.717712402344	276.9270935058594	1372.788940429688	-908.9370727539065	-374.5195312500001	859.8955688476565	-1174.133911132813	-357.4632263183594	893.090515136719	-927.5601196289065	-545.4885864257814	947.1368408203127	-1047.258422851563	-553.8669433593751	912.7000122070315	-1072.728393554688	-548.8100585937501	916.8671875000002	-1015.933166503906	-328.6505737304688	637.9857177734376	-1238.517578125	-249.0226287841797	605.8968505859376	-1235.43359375	-217.992416381836	641.1669921875001	-1231.436401367188	-230.4730529785157	550.1807861328126	-1218.796020507813	-134.6883544921875	450.8281860351564	-1188.557861328125	-106.0894470214844	478.5826416015626	-1053.956665039063	-146.2144012451172	307.9870300292969	-1103.6904296875	-210.3873901367188	273.7319946289063	-1155.463134765625	-178.8772277832032	263.7737121582032	-1126.210815429688	-219.1528015136719	207.2708129882813	-1078.143310546875	-336.7115783691407	108.1149978637696	-1102.074829101563	-299.4788513183594	134.1311340332032	-1012.027404785156	-406.1023864746095	104.7805404663086	-1038.567993164063	-197.7689056396485	56.87548065185548	-1018.464660644531	-188.8948211669922	54.61459732055665	-1067.702758789063	-242.4180297851563	38.78428649902344	-1117.973754882813	-219.9631652832032	676.6802978515626	-846.5938720703127	-154.5876159667969	680.6277465820314	-859.7451171875002	-139.1448516845703	708.1522827148439	-869.7921142578127	-105.1450119018555	615.3511352539064	-876.424011230469	-46.03913879394532	552.4407958984376	-887.0870361328127	-35.07722091674805	585.5280151367189	-1019.401550292969	58.29359817504884	498.0014038085939	-905.9912719726565	45.62044525146485	398.3844299316407	-870.7635498046877	85.6223831176758	417.5533142089845	-884.5950927734377	122.1343231201172	384.0659179687501	-915.5056762695315	170.7564697265625	205.7168273925782	-901.7539062500002	191.6971130371094	237.0385742187501	-989.978698730469	134.9358367919922	145.1381530761719	-958.768981933594	338.2123107910157	233.3463745117188	-973.923278808594	339.0045166015626	243.9974670410157	-927.3728027343752	305.1126708984376	206.4640197753907	-877.3322753906252	
891	4.45	-203.3874511718751	1568.455810546875	-1086.997314453125	-365.4332275390626	1512.855712890625	-1154.391479492188	-379.5845336914063	1511.256225585938	-1014.464233398438	-415.8212890625001	1360.130859375	-1068.873901367188	-521.6050415039064	1048.782836914063	-1058.637939453125	-284.5112304687501	1279.620971679688	-1086.354614257813	-348.1543884277344	1358.846801757813	-1222.91943359375	-211.5244750976563	1263.645263671875	-1367.796875	-177.6942443847657	1297.394897460938	-1351.665161132813	-142.9454498291016	1260.447998046875	-1383.647338867188	-84.80667877197267	1267.011840820313	-1384.914672851563	-77.29299163818361	1195.68701171875	-1349.994995117188	173.8387908935547	1290.268188476563	-1314.22607421875	187.8949890136719	1273.952514648438	-1388.747680664063	262.7785644531251	1321.562866210938	-1332.21044921875	-321.3336791992188	1352.87060546875	-939.479919433594	-161.3393249511719	1259.428588867188	-813.3811645507815	-130.1456756591797	1293.38037109375	-826.0200805664065	-92.08789825439455	1251.07958984375	-802.6065673828127	-46.90752410888673	1251.114624023438	-805.717956542969	-44.44127655029298	1192.730346679688	-853.4041137695315	202.8717498779297	1336.348388671875	-918.8770141601565	215.4455566406251	1302.312622070313	-847.5427856445315	276.8724670410157	1374.4443359375	-908.9514770507815	-373.9487609863282	861.8751220703127	-1174.227905273438	-357.0659179687501	894.738708496094	-927.6216430664065	-545.1129150390626	948.8610839843752	-1047.277954101563	-553.7800903320314	914.608337402344	-1072.691650390625	-548.4104614257814	918.7193603515627	-1016.027038574219	-328.6947326660157	639.4044799804689	-1238.4677734375	-249.4353637695313	606.9912719726564	-1235.150390625	-217.7540283203126	642.0059814453126	-1231.32666015625	-231.2201232910157	551.2143554687501	-1218.438354492188	-135.5202789306641	451.503631591797	-1188.149658203125	-107.060905456543	479.253631591797	-1053.711059570313	-146.8011322021485	308.4160766601563	-1103.510620117188	-210.7698516845704	274.1857299804688	-1155.25341796875	-179.012435913086	263.9946899414063	-1126.196655273438	-219.3588409423829	207.4741516113282	-1078.135131835938	-336.3797607421876	108.0424423217774	-1102.031372070313	-299.5206909179688	134.1203918457032	-1012.042846679688	-406.1181030273439	104.7970733642578	-1038.556274414063	-197.8162384033204	56.96173095703126	-1018.471496582031	-188.9002532958985	54.63159561157228	-1067.739379882813	-242.3973846435547	38.76071548461915	-1118.000366210938	-220.063461303711	678.1919555664064	-846.495788574219	-154.6846618652344	681.6796264648439	-859.8460083007815	-139.0654449462891	709.3679199218751	-869.7695922851565	-105.068603515625	616.5304565429689	-876.4576416015627	-46.33892440795899	553.3831787109376	-887.1416015625002	-34.93693542480469	586.4652099609376	-1019.38720703125	58.04957580566408	498.7656555175782	-906.076843261719	45.27203750610352	399.2340393066407	-870.8155517578127	85.19254302978517	418.2657165527345	-884.6268310546877	121.7425613403321	384.7286987304689	-915.6052246093752	170.1224517822266	206.3802642822266	-901.7647705078127	190.8269653320313	237.6009979248047	-990.0300292968752	134.2881011962891	145.7679443359375	-958.8897705078127	337.8721313476563	233.8406982421876	-974.1702880859377	338.3681640625001	244.4127044677735	-927.4310302734377	304.3324584960938	206.8263092041016	-877.4381103515627	
892	4.455	-203.6521759033204	1570.425170898438	-1087.048461914063	-365.5702819824219	1514.80126953125	-1154.415161132813	-379.5808105468751	1513.246948242188	-1014.478271484375	-416.1677856445314	1362.004150390625	-1068.892944335938	-521.3978271484376	1050.555786132813	-1058.7060546875	-284.5672607421876	1281.697265625	-1086.376586914063	-348.3865661621094	1360.531494140625	-1222.899047851563	-211.5198516845704	1265.265869140625	-1367.8896484375	-178.8273620605469	1299.40087890625	-1351.762329101563	-143.6702575683594	1262.47705078125	-1383.80224609375	-85.12398529052736	1268.951293945313	-1385.078369140625	-77.52340698242189	1197.656616210938	-1350.11962890625	173.371078491211	1292.259643554688	-1314.197265625	188.4946594238282	1275.838256835938	-1388.804931640625	262.2897033691407	1323.456420898438	-1332.07177734375	-321.2748413085938	1354.8330078125	-939.501892089844	-161.6323699951172	1261.340698242188	-813.3522949218752	-130.5342407226563	1295.190185546875	-825.9273681640627	-92.30880737304689	1253.06396484375	-802.5700683593752	-47.05918121337891	1252.893310546875	-805.7354125976565	-44.62661743164063	1194.63818359375	-853.2393798828127	203.4045867919922	1338.071899414063	-919.2072753906252	215.1768493652344	1304.036254882813	-847.5751953125002	276.6291809082032	1376.243286132813	-908.8660888671877	-374.3712158203126	863.429870605469	-1173.846069335938	-356.8923339843751	896.572937011719	-927.5993652343752	-544.9730834960939	950.7434692382815	-1047.339477539063	-553.6157226562501	916.4468383789065	-1072.756958007813	-548.4499511718751	920.487487792969	-1015.887268066406	-328.7481384277344	640.7617187500001	-1238.270629882813	-249.5918273925782	607.8887329101564	-1235.036987304688	-218.2015686035157	643.0825195312501	-1231.01318359375	-231.6681060791016	552.3454589843751	-1218.3408203125	-136.2772064208985	452.0779724121095	-1187.898803710938	-107.991439819336	479.8606262207032	-1053.36279296875	-147.4488372802735	309.1704101562501	-1103.470825195313	-211.2844543457032	274.5738525390626	-1155.046875	-180.2718048095703	264.2133178710938	-1125.889526367188	-219.5816650390626	207.7355651855469	-1078.10986328125	-336.3871154785157	108.0483932495117	-1102.0263671875	-299.5043945312501	134.1590576171875	-1012.046203613281	-406.1157836914064	104.8121795654297	-1038.561157226563	-197.7845458984376	56.93548583984376	-1018.414245605469	-188.9051361083985	54.63161849975587	-1067.73486328125	-242.4113769531251	38.77776336669923	-1117.979736328125	-220.1325988769532	679.5608520507814	-846.5073852539065	-154.537841796875	683.2048950195314	-859.7365722656252	-138.9362335205078	710.5943603515626	-869.8696899414065	-105.2876586914063	617.5697021484376	-876.416931152344	-46.67562866210938	554.5042114257814	-887.175720214844	-35.05142974853516	587.5036621093751	-1019.457275390625	57.61590576171876	499.5134277343751	-906.1467895507815	44.8383903503418	399.9804992675782	-870.8259887695315	84.8236770629883	418.9668273925782	-885.0525512695315	120.914291381836	385.4755249023439	-915.4724121093752	169.4608459472657	207.0448760986329	-901.8098144531252	190.2109985351563	238.3218231201172	-990.1287841796877	133.7472076416016	146.3467407226563	-959.2219238281252	336.9744567871094	234.2348175048829	-974.2407836914065	337.8251647949219	244.8206024169922	-927.5103759765627	303.5952148437501	207.4830627441407	-877.4942626953127	
893	4.46	-203.8843688964844	1572.373779296875	-1087.129150390625	-365.9432067871094	1516.770263671875	-1154.460327148438	-380.0209655761719	1515.0888671875	-1014.444946289063	-416.3472290039064	1363.81298828125	-1068.817260742188	-521.3849487304689	1052.289794921875	-1058.6748046875	-284.7399291992188	1283.62353515625	-1086.292724609375	-348.6751403808594	1362.399536132813	-1222.871826171875	-212.1400909423829	1267.199340820313	-1367.83203125	-178.4096374511719	1301.043334960938	-1351.681762695313	-143.636962890625	1264.236206054688	-1383.7490234375	-85.35505676269533	1270.768798828125	-1385.021850585938	-77.9687957763672	1199.2587890625	-1350.172119140625	172.911605834961	1293.96240234375	-1314.14404296875	187.6331176757813	1277.68994140625	-1388.653564453125	262.1874694824219	1325.087280273438	-1332.012573242188	-321.7702941894532	1356.7568359375	-939.5834960937502	-161.8787536621094	1263.147827148438	-813.208435058594	-130.8161315917969	1296.959838867188	-825.8627929687502	-92.65380096435548	1254.684448242188	-802.4899902343752	-47.29888916015626	1254.744750976563	-805.5700683593752	-44.91072845458985	1196.180541992188	-853.092956542969	202.4058837890626	1339.928833007813	-918.7740478515627	215.0449523925782	1305.9736328125	-847.569030761719	276.5627136230469	1378.116821289063	-908.8811645507815	-374.2435607910157	865.184997558594	-1173.812622070313	-356.6083679199219	898.4598388671877	-927.447448730469	-544.7028808593751	952.532409667969	-1047.28125	-553.2795410156251	918.2346801757815	-1072.647094726563	-547.9527587890626	922.3031005859377	-1016.018981933594	-328.9439697265626	642.0505981445314	-1238.176391601563	-249.746078491211	609.0142211914064	-1234.873901367188	-218.315170288086	644.0385131835939	-1230.89794921875	-232.1965637207032	553.3821411132814	-1218.102783203125	-137.3394775390625	452.950653076172	-1187.639404296875	-108.6116714477539	480.428680419922	-1053.394409179688	-147.8340301513672	309.6626281738282	-1103.488647460938	-211.6543731689454	274.9916076660157	-1155.015991210938	-180.4790954589844	264.5159606933594	-1125.8515625	-219.7108612060547	208.0012664794922	-1078.0439453125	-336.6634521484376	108.1106643676758	-1102.07470703125	-299.5738220214844	134.1301574707032	-1012.046997070313	-406.1085510253907	104.7988967895508	-1038.5966796875	-197.837142944336	56.95939254760744	-1018.409729003906	-188.8700561523438	54.6446876525879	-1067.711181640625	-242.4197845458985	38.78410339355469	-1117.951782226563	-219.9990844726563	681.0147094726564	-846.517761230469	-154.6187591552735	684.2745361328126	-859.7633056640627	-138.8944091796875	711.8208618164064	-869.7493286132815	-105.3995666503907	618.7091064453126	-876.4261474609377	-46.88373565673829	555.3388671875001	-887.0974121093752	-35.21139144897462	588.4500122070314	-1019.456787109375	57.41563415527345	500.537078857422	-906.2430419921877	44.46880340576173	400.8472595214845	-870.830749511719	84.45679473876955	419.9494628906251	-885.1779785156252	120.5077438354492	386.2448120117189	-915.4993286132815	168.5740203857422	207.7028350830079	-901.7869873046877	189.548828125	238.968490600586	-990.116149902344	132.6701049804688	146.8626861572266	-958.8525390625002	335.9493103027344	234.5375671386719	-974.2788085937502	337.2351989746094	245.363021850586	-927.7186279296877	303.0021667480469	208.0228729248047	-877.6180419921877	
